inDegrees=yes
name=ik_S56_A11_T02
DataType=double
version=3
OpenSimVersion=4.3-2021-08-27-4bc7ad9
endheader
time	pelvis_tilt	pelvis_list	pelvis_rotation	pelvis_tx	pelvis_ty	pelvis_tz	hip_flexion_r	hip_adduction_r	hip_rotation_r	knee_angle_r	knee_angle_r_beta	ankle_angle_r	subtalar_angle_r	mtp_angle_r	hip_flexion_l	hip_adduction_l	hip_rotation_l	knee_angle_l	knee_angle_l_beta	ankle_angle_l	subtalar_angle_l	mtp_angle_l	lumbar_extension	lumbar_bending	lumbar_rotation	arm_flex_r	arm_add_r	arm_rot_r	elbow_flex_r	pro_sup_r	wrist_flex_r	wrist_dev_r	arm_flex_l	arm_add_l	arm_rot_l	elbow_flex_l	pro_sup_l	wrist_flex_l	wrist_dev_l
12.83999999999982	0.5381406205979486	-0.2235115912223693	38.73607328317452	0	0.9399999999999999	0	40.01963413431461	-9.948561646148901	-9.792737454635146	46.94327828842259	0.8193147678129424	0	0	0	40.01963413431461	-9.948561646148901	-9.792737454635146	46.94327828842259	0.8193147678129424	0	0	0	0.6862597829559561	-0.4198296237694975	18.44502570981361	46.75742077485445	-35.72478012828947	14.9327258205366	53.23100190406074	76.63917957443256	0	0	1.197241794366928	-6.523868845041232	4.384553256552631	8.90017901463599	104.4975191311127	0	0
12.85999999999981	0.4510556265658742	-0.2404240981897897	38.44364409814405	0	0.9399999999999999	0	40.08037318362645	-9.950046742904474	-9.797181537260608	47.02978535300995	0.8208246009162273	0	0	0	40.08037318362645	-9.950046742904474	-9.797181537260608	47.02978535300995	0.8208246009162273	0	0	0	0.6117313216378977	-0.3801673324638519	18.47342532771973	43.03814149666098	-34.08810094694301	12.72854567959498	51.54466279233421	80.95256806749462	0	0	1.301099765345989	-6.408569704966914	4.534935749956738	9.015344416511525	104.4283338350382	0	0
12.87999999999981	0.3613532538584565	-0.2896985741004053	38.21069451638391	0	0.9399999999999999	0	40.13699112685413	-9.951414299315497	-9.801297127950601	47.11030753343132	0.8222299780854651	0	0	0	40.13699112685413	-9.951414299315497	-9.801297127950601	47.11030753343132	0.8222299780854651	0	0	0	0.5173413501011355	-0.3588127322691974	18.51164098972161	39.53938023015822	-32.3910414854198	10.42470557867803	49.74432484697865	84.75686010695374	0	0	1.499210684415424	-6.317603347617419	4.648003942148343	9.107119806887006	104.485926030429	0	0
12.89999999999981	0.2958547592104849	-0.3189238093743443	38.00634406845845	0	0.9399999999999999	0	40.18891027638453	-9.952645391965239	-9.805032676260121	47.18433526214365	0.8235220056892684	0	0	0	40.18891027638453	-9.952645391965239	-9.805032676260121	47.18433526214365	0.8235220056892684	0	0	0	0.4523787488541797	-0.3425367714805066	18.55201243121349	36.13398004656555	-30.7168593045283	8.258129099464474	47.98987327463162	87.96321704689277	0	0	1.655817632725595	-6.311788428836853	4.754149802137032	9.232031984431881	104.5062374674476	0	0
12.91999999999981	0.1483076221893573	-0.4266626277351687	37.68527211810534	0	0.9399999999999999	0	40.27851383475804	-9.954689474300576	-9.811343317253197	47.31339167023161	0.8257744649312008	0	0	0	40.27851383475804	-9.954689474300576	-9.811343317253197	47.31339167023161	0.8257744649312008	0	0	0	0.2809988842117775	-0.3045891639632055	18.57184848377319	29.93178298111544	-27.10177012678052	4.208806062582592	48.06984161880013	93.26417077640875	0	0	1.997248229147626	-6.236816799516963	4.719733411405385	9.384949579899589	104.3875360417566	0	0
12.93999999999981	0.108876536008555	-0.4836859606461051	37.42671126989406	0	0.9399999999999999	0	40.28119965502841	-9.954778566063833	-9.811581809820719	47.31636577578897	0.8258263728654784	0	0	0	40.28119965502841	-9.954778566063833	-9.811581809820719	47.31636577578897	0.8258263728654784	0	0	0	0.2151592674822776	-0.3226385654133994	18.73668866798039	30.002122427391	-26.80532332105333	4.467647689491947	44.00349798870622	93.52784599281435	0	0	2.170349991508341	-6.33274148578442	4.913158354294433	9.589451544718143	104.2143635361571	0	0
12.95999999999981	0.09750357116069237	-0.5195970678689461	37.341842934646	0	0.9399999999999999	0	40.34095472761274	-9.956120876386166	-9.815753159144354	47.40241009367718	0.8273281295152604	0	0	0	40.34095472761274	-9.956120876386166	-9.815753159144354	47.40241009367718	0.8273281295152604	0	0	0	0.1923329004498216	-0.3459290777714703	18.77653028678651	27.09194706658545	-24.90686135290217	2.356833162398945	45.90670391719996	95.79562328224907	0	0	2.277564905596623	-6.454518454249044	5.12077942644543	9.832705731486202	104.175548686526	0	0
12.97999999999981	0.03586412017243097	-0.6636174103057958	37.25803695598638	0	0.9399999999999999	0	40.38322820178892	-9.957064610355641	-9.818695631181964	47.46293396564559	0.8283844703571647	0	0	0	40.38322820178892	-9.957064610355641	-9.818695631181964	47.46293396564559	0.8283844703571647	0	0	0	0.05648665368305217	-0.4193438620293101	18.75960683523873	24.62938368228169	-22.7860747739512	0.8877441712150167	43.49930700200994	97.84342218708227	0	0	2.656514722972444	-6.610156937571097	5.111537419621935	9.977082361894503	104.2288224365163	0	0
12.99999999999981	0.01732704897184026	-0.6974958659134545	37.21731112166037	0	0.9399999999999999	0	40.38447941864308	-9.957104808223752	-9.818804784453576	47.46432429342332	0.8284087361545681	0	0	0	40.38447941864308	-9.957104808223752	-9.818804784453576	47.46432429342332	0.8284087361545681	0	0	0	0.02118523686242582	-0.4351650783101538	18.76137621939563	24.71874160212007	-22.7615348103652	0.9184985408620454	43.51288091305783	97.8600232562239	0	0	2.81248023225595	-6.741647059066955	5.162213717902906	10.03343247565274	104.1580759906785	0	0
13.01999999999981	-0.003522539488302791	-0.7486396022809525	37.27002586372182	0	0.9399999999999999	0	40.45957164176236	-9.95870321642774	-9.823897808005231	47.57316239097494	0.8303083193084505	0	0	0	40.45957164176236	-9.95870321642774	-9.823897808005231	47.57316239097494	0.8303083193084505	0	0	0	-0.01926576104187038	-0.4394631207941024	18.68558008369885	20.42940810275937	-18.48424658624059	-0.6321410996377453	33.13909020214089	102.492218154926	0	0	2.941429058310503	-6.830982572883458	5.289504321504488	10.25615509719954	103.9854771739428	0	0
13.03999999999981	-0.03519867591771094	-0.796696374408188	37.28598236609451	0	0.9399999999999999	0	40.48585088455884	-9.959281154035578	-9.825715515950309	47.61020016265131	0.8309547503718052	0	0	0	40.48585088455884	-9.959281154035578	-9.825715515950309	47.61020016265131	0.8309547503718052	0	0	0	-0.07456152085568071	-0.4575250456397134	18.63588834550314	18.67919975276166	-16.74069617682584	-1.303730633831539	30.19713023876064	104.4703945846442	0	0	3.134512403742824	-7.025390385256948	5.32046264098779	10.40242554960587	103.9552651914949	0	0
13.05999999999981	-0.03821507392503858	-0.8001993678313963	37.22012361568235	0	0.9399999999999999	0	40.48780761478891	-9.959342377709827	-9.825883805151808	47.61237141251978	0.8309926458308935	0	0	0	40.48780761478891	-9.959342377709827	-9.825883805151808	47.61237141251978	0.8309926458308935	0	0	0	-0.07733647012999002	-0.4565306142996584	18.71121774463328	16.99154503150021	-15.36799330981468	-1.994524693669852	27.34230491282476	106.351660435377	0	0	3.144973972738556	-7.117550077534712	5.436619285426948	10.61855520433114	104.1731223612733	0	0
13.07999999999981	-0.05510355232019083	-0.8297703891823496	37.09118627578792	0	0.9399999999999999	0	40.49007159701658	-9.959413246313398	-9.826078614461386	47.61488017323765	0.831036431965565	0	0	0	40.49007159701658	-9.959413246313398	-9.826078614461386	47.61488017323765	0.831036431965565	0	0	0	-0.1063081641372829	-0.468490040653321	18.77762342748708	15.45618490197403	-14.1429856231581	-2.627358968104787	24.71315848738724	108.3339688611738	0	0	3.210130388479541	-7.172123354336454	5.559783438916559	10.63823411023998	104.1365793417615	0	0
13.09999999999981	-0.1158837714776548	-0.8791454227056276	36.87090838882556	0	0.9399999999999999	0	40.49237799298628	-9.959485393273813	-9.826277026834074	47.61743484716343	0.8310810194368847	0	0	0	40.49237799298628	-9.959485393273813	-9.826277026834074	47.61743484716343	0.8310810194368847	0	0	0	-0.1829553915996143	-0.4679444815606882	18.80678496411958	14.20131124296019	-13.06865972048173	-3.167783105516358	22.32826003357133	110.5100483399819	0	0	3.304002376119819	-7.199078714008485	5.558912301273834	10.65049802245777	104.1260867200006	0	0
13.11999999999981	-0.1395074697842348	-0.8886634669196712	36.7412328396912	0	0.9399999999999999	0	40.49457451917291	-9.959553951332692	-9.826465747916716	47.61987054600903	0.8311235304013275	0	0	0	40.49457451917291	-9.959553951332692	-9.826465747916716	47.61987054600903	0.8311235304013275	0	0	0	-0.204736295307929	-0.4610266603062058	18.87785016582914	12.84465793285476	-12.08433237411711	-3.895583218849235	20.03647947106796	112.5603459266355	0	0	3.340226969063153	-7.183382414048107	5.498129708899558	10.55447520511709	104.4162271517597	0	0
13.13999999999981	-0.1967529401144106	-0.9209951532464312	36.52185190693056	0	0.9399999999999999	0	40.4963506813388	-9.95960934002086	-9.826618294262849	47.62183975988304	0.8311578996671048	0	0	0	40.4963506813388	-9.95960934002086	-9.826618294262849	47.62183975988304	0.8311578996671048	0	0	0	-0.2700582091662502	-0.4497691494387154	18.95476990267457	11.58374687291309	-11.28409153386224	-4.541808027369696	18.12605037730253	114.2440066150313	0	0	3.394469511476109	-7.203408080207574	5.622592273057587	10.51181432794798	104.4700632589165	0	0
13.15999999999981	-0.221679533304778	-0.9328042852642238	36.34045058188262	0	0.9399999999999999	0	40.49865087719485	-9.959681115935982	-9.826815966080456	47.62438619137473	0.8312023432808112	0	0	0	40.49865087719485	-9.959681115935982	-9.826815966080456	47.62438619137473	0.8312023432808112	0	0	0	-0.2962235708609409	-0.4446382721829367	19.07133603372774	10.29538535827081	-10.54840682894724	-5.322871665547983	16.3073994037605	115.8331390860582	0	0	3.351466023806799	-7.236898979976566	5.86019424647408	10.58266264191173	104.2914950323253	0	0
13.17999999999981	-0.2403153166766121	-0.9499581557385141	36.13929673981525	0	0.9399999999999999	0	40.50086476103094	-9.959750146007998	-9.827006163900732	47.62683635682323	0.8312451067351062	0	0	0	40.50086476103094	-9.959750146007998	-9.827006163900732	47.62683635682323	0.8312451067351062	0	0	0	-0.3194403013924562	-0.4520159651460848	19.15108330114975	9.106001081224253	-9.952212853066632	-5.912227175872573	14.75752756236756	117.1213916136576	0	0	3.29087937073405	-7.336700426130909	6.077216482596682	10.59824887600504	104.2572854744527	0	0
